HIERARCHY
ROOT hip
{
  OFFSET -5.44982e-005 106.236 -1.42206
  CHANNELS 6 Xposition Yposition Zposition Zrotation Xrotation Yrotation
  JOINT abdomen
  {
    OFFSET 0 -1.186 -1.50178
    CHANNELS 6 Xposition Yposition Zposition Zrotation Xrotation Yrotation
    JOINT abdomen2
    {
      OFFSET 0 9.964 0.21338
      CHANNELS 6 Xposition Yposition Zposition Zrotation Xrotation Yrotation
      JOINT chest
      {
        OFFSET 0 13.134 -3.25729
        CHANNELS 6 Xposition Yposition Zposition Zrotation Xrotation Yrotation
        JOINT neck
        {
          OFFSET 0 20.686 -1.69049
          CHANNELS 6 Xposition Yposition Zposition Zrotation Xrotation Yrotation
          JOINT head
          {
            OFFSET 0 7.23799 -0.12368
            CHANNELS 6 Xposition Yposition Zposition Zrotation Xrotation Yrotation
            End Site
            {
              OFFSET 0 10.017 2.38717
            }
          }
        }
        JOINT lCollar
        {
          OFFSET 1.70688 20.075 5.0056
          CHANNELS 6 Xposition Yposition Zposition Zrotation Xrotation Yrotation
          JOINT lShldr
          {
            OFFSET 13.6458 -0.047012 -4.84902
            CHANNELS 6 Xposition Yposition Zposition Zrotation Xrotation Yrotation
            JOINT lForeArm
            {
              OFFSET 28.3255 -0.975903 2.28883
              CHANNELS 6 Xposition Yposition Zposition Zrotation Xrotation Yrotation
              JOINT lHand
              {
                OFFSET 22.1583 -0.530035 10.8316
                CHANNELS 6 Xposition Yposition Zposition Zrotation Xrotation Yrotation
                JOINT lThumb1
                {
                  OFFSET 0.785995 0.111999 2.58168
                  CHANNELS 6 Xposition Yposition Zposition Zrotation Xrotation Yrotation
                  JOINT lThumb2
                  {
                    OFFSET 0.3601 -0.878005 4.2331
                    CHANNELS 6 Xposition Yposition Zposition Zrotation Xrotation Yrotation
                    End Site
                    {
                      OFFSET 1.81271 -1.21601 2.2227
                    }
                  }
                }
                JOINT lCarpal1
                {
                  OFFSET 0.9571 1.114 1.76948
                  CHANNELS 6 Xposition Yposition Zposition Zrotation Xrotation Yrotation
                  JOINT lIndex1
                  {
                    OFFSET 4.1246 0.487 4.1451
                    CHANNELS 6 Xposition Yposition Zposition Zrotation Xrotation Yrotation
                    JOINT lIndex2
                    {
                      OFFSET 3.40521 -1.45401 2.7682
                      CHANNELS 6 Xposition Yposition Zposition Zrotation Xrotation Yrotation
                      End Site
                      {
                        OFFSET 1.4531 -1.795 1.2713
                      }
                    }
                  }
                  JOINT lMid1
                  {
                    OFFSET 5.6954 0.209991 2.1184
                    CHANNELS 6 Xposition Yposition Zposition Zrotation Xrotation Yrotation
                    JOINT lMid2
                    {
                      OFFSET 3.9766 -1.53999 2.3863
                      CHANNELS 6 Xposition Yposition Zposition Zrotation Xrotation Yrotation
                      End Site
                      {
                        OFFSET 1.4042 -1.926 1.125
                      }
                    }
                  }
                }
                JOINT lCarpal2
                {
                  OFFSET 2.09559 0.65999 -0.38939
                  CHANNELS 6 Xposition Yposition Zposition Zrotation Xrotation Yrotation
                  JOINT lRing1
                  {
                    OFFSET 5.0395 -0.089997 2.49707
                    CHANNELS 6 Xposition Yposition Zposition Zrotation Xrotation Yrotation
                    JOINT lRing2
                    {
                      OFFSET 3.7921 -1.552 1.4806
                      CHANNELS 6 Xposition Yposition Zposition Zrotation Xrotation Yrotation
                      End Site
                      {
                        OFFSET 1.4655 -1.808 0.9609
                      }
                    }
                  }
                  JOINT lPinky1
                  {
                    OFFSET 4.9141 -1.269 0.35915
                    CHANNELS 6 Xposition Yposition Zposition Zrotation Xrotation Yrotation
                    JOINT lPinky2
                    {
                      OFFSET 3.1477 -1.685 0.84623
                      CHANNELS 6 Xposition Yposition Zposition Zrotation Xrotation Yrotation
                      End Site
                      {
                        OFFSET 0.805505 -1.58499 0.79549
                      }
                    }
                  }
                }
              }
            }
          }
        }
        JOINT rCollar
        {
          OFFSET -1.70688 20.075 5.0056
          CHANNELS 6 Xposition Yposition Zposition Zrotation Xrotation Yrotation
          JOINT rShldr
          {
            OFFSET -13.6458 -0.047012 -4.84902
            CHANNELS 6 Xposition Yposition Zposition Zrotation Xrotation Yrotation
            JOINT rForeArm
            {
              OFFSET -28.3255 -0.975903 2.28883
              CHANNELS 6 Xposition Yposition Zposition Zrotation Xrotation Yrotation
              JOINT rHand
              {
                OFFSET -22.1583 -0.530036 10.8316
                CHANNELS 6 Xposition Yposition Zposition Zrotation Xrotation Yrotation
                JOINT rThumb1
                {
                  OFFSET -0.785995 0.111999 2.58168
                  CHANNELS 6 Xposition Yposition Zposition Zrotation Xrotation Yrotation
                  JOINT rThumb2
                  {
                    OFFSET -0.3601 -0.878005 4.2331
                    CHANNELS 6 Xposition Yposition Zposition Zrotation Xrotation Yrotation
                    End Site
                    {
                      OFFSET -1.81271 -1.21601 2.2227
                    }
                  }
                }
                JOINT rCarpal1
                {
                  OFFSET -0.9571 1.114 1.76948
                  CHANNELS 6 Xposition Yposition Zposition Zrotation Xrotation Yrotation
                  JOINT rIndex1
                  {
                    OFFSET -4.1246 0.487 4.1451
                    CHANNELS 6 Xposition Yposition Zposition Zrotation Xrotation Yrotation
                    JOINT rIndex2
                    {
                      OFFSET -3.40521 -1.45401 2.7682
                      CHANNELS 6 Xposition Yposition Zposition Zrotation Xrotation Yrotation
                      End Site
                      {
                        OFFSET -1.4531 -1.795 1.2713
                      }
                    }
                  }
                  JOINT rMid1
                  {
                    OFFSET -5.6954 0.209991 2.1184
                    CHANNELS 6 Xposition Yposition Zposition Zrotation Xrotation Yrotation
                    JOINT rMid2
                    {
                      OFFSET -3.9766 -1.53999 2.3863
                      CHANNELS 6 Xposition Yposition Zposition Zrotation Xrotation Yrotation
                      End Site
                      {
                        OFFSET -1.4042 -1.926 1.125
                      }
                    }
                  }
                }
                JOINT rCarpal2
                {
                  OFFSET -2.09559 0.65999 -0.38939
                  CHANNELS 6 Xposition Yposition Zposition Zrotation Xrotation Yrotation
                  JOINT rRing1
                  {
                    OFFSET -5.0395 -0.089997 2.49707
                    CHANNELS 6 Xposition Yposition Zposition Zrotation Xrotation Yrotation
                    JOINT rRing2
                    {
                      OFFSET -3.7921 -1.552 1.4806
                      CHANNELS 6 Xposition Yposition Zposition Zrotation Xrotation Yrotation
                      End Site
                      {
                        OFFSET -1.4655 -1.808 0.9609
                      }
                    }
                  }
                  JOINT rPinky1
                  {
                    OFFSET -4.9141 -1.269 0.35915
                    CHANNELS 6 Xposition Yposition Zposition Zrotation Xrotation Yrotation
                    JOINT rPinky2
                    {
                      OFFSET -3.1477 -1.685 0.84623
                      CHANNELS 6 Xposition Yposition Zposition Zrotation Xrotation Yrotation
                      End Site
                      {
                        OFFSET -0.805505 -1.58499 0.79549
                      }
                    }
                  }
                }
              }
            }
          }
        }
      }
    }
  }
  JOINT lThigh
  {
    OFFSET 8.367 -8.2066 0.59823
    CHANNELS 6 Xposition Yposition Zposition Zrotation Xrotation Yrotation
    JOINT lShin
    {
      OFFSET 2.19232 -43.463 -0.493181
      CHANNELS 6 Xposition Yposition Zposition Zrotation Xrotation Yrotation
      JOINT lFoot
      {
        OFFSET 0.733257 -45.8593 -2.64513
        CHANNELS 6 Xposition Yposition Zposition Zrotation Xrotation Yrotation
        End Site
        {
          OFFSET 2.6618 -4.26993 12.3931
        }
      }
    }
  }
  JOINT rThigh
  {
    OFFSET -8.367 -8.2066 0.59823
    CHANNELS 6 Xposition Yposition Zposition Zrotation Xrotation Yrotation
    JOINT rShin
    {
      OFFSET -2.19233 -43.463 -0.493108
      CHANNELS 6 Xposition Yposition Zposition Zrotation Xrotation Yrotation
      JOINT rFoot
      {
        OFFSET -0.733256 -45.8593 -2.64514
        CHANNELS 6 Xposition Yposition Zposition Zrotation Xrotation Yrotation
        End Site
        {
          OFFSET -2.6618 -4.26993 12.3931
        }
      }
    }
  }
}
MOTION
Frames:	4
Frame Time:	0.0333333
4.28062 98.8202 -4.76127 -6.97443 -6.0865 -52.5307 4.44089e-016 -1.186 -1.50178 -1.29808 6.09006 -2.66372 0 9.964 0.21338 -3.30684 11.5445 0.891451 0 13.134 -3.25729 -2.95541 11.6852 -0.334734 1.77636e-015 20.686 -1.69049 10.513 -9.52464 8.41656 1.77636e-015 7.23799 -0.12368 -10.7332 10.4255 34.2224 1.70688 20.075 5.0056 4.36939 -5.86955 1.19732 13.6458 -0.047012 -4.84902 -35.9852 14.5207 15.3942 28.3255 -0.975903 2.28883 1.37176 -4.51098 -57.4565 22.1583 -0.530035 10.8316 -27.2825 -29.9251 -24.4024 0.785995 0.111999 2.58168 -6.36111e-015 0 7.95139e-016 0.3601 -0.878005 4.2331 3.18055e-015 -1.59028e-015 -6.36111e-015 0.9571 1.114 1.76948 -6.36111e-015 0 7.95139e-016 4.1246 0.487 4.1451 3.18055e-015 -1.59028e-015 -6.36111e-015 3.40521 -1.45401 2.7682 -3.18055e-015 1.59028e-015 -7.95139e-016 5.6954 0.209991 2.1184 3.18055e-015 -1.59028e-015 -6.36111e-015 3.9766 -1.53999 2.3863 -3.18055e-015 1.59028e-015 -7.95139e-016 2.09559 0.65999 -0.38939 -6.36111e-015 0 7.95139e-016 5.0395 -0.089997 2.49707 3.18055e-015 -1.59028e-015 -6.36111e-015 3.7921 -1.552 1.4806 -3.18055e-015 1.59028e-015 -7.95139e-016 4.9141 -1.269 0.35915 3.18055e-015 -1.59028e-015 -6.36111e-015 3.1477 -1.685 0.84623 -3.18055e-015 1.59028e-015 -7.95139e-016 -1.70688 20.075 5.0056 5.83785 -8.13672 -2.86473 -13.6458 -0.047012 -4.84902 44.558 8.93664 -20.3082 -28.3255 -0.975903 2.28883 -3.49734 -4.79043 62.3763 -22.1583 -0.530036 10.8316 16.1703 -36.3584 13.6804 -0.785995 0.111999 2.58168 4.37326e-015 -3.18055e-015 9.74045e-015 -0.3601 -0.878005 4.2331 -3.18055e-015 0 -1.39149e-015 -0.957101 1.114 1.76948 4.37326e-015 -3.18055e-015 9.74045e-015 -4.1246 0.487 4.1451 -3.18055e-015 0 -1.39149e-015 -3.40521 -1.45401 2.7682 -4.37326e-015 6.36111e-015 -0 -5.6954 0.209991 2.1184 -3.18055e-015 0 -1.39149e-015 -3.9766 -1.53999 2.3863 -4.37326e-015 6.36111e-015 -0 -2.09559 0.65999 -0.38939 4.37326e-015 -3.18055e-015 9.74045e-015 -5.0395 -0.089997 2.49707 -3.18055e-015 0 -1.39149e-015 -3.7921 -1.552 1.4806 -4.37326e-015 6.36111e-015 -0 -4.9141 -1.269 0.35915 -3.18055e-015 0 -1.39149e-015 -3.1477 -1.685 0.84623 -4.37326e-015 6.36111e-015 -0 8.367 -8.2066 0.59823 30.8331 -9.45641 18.3709 2.19232 -43.463 -0.493181 -3.3801 41.5121 4.0719 0.733257 -45.8593 -2.64513 -21.558 -10.9832 2.88004 -8.367 -8.2066 0.59823 -28.4907 -21.1471 -18.8019 -2.19233 -43.463 -0.493108 -2.70435 43.5633 0.214504 -0.733256 -45.8593 -2.64514 18.9081 -4.90709 0.408025 
2.54079 98.9701 -12.4622 -5.86388 -7.01031 -51.0037 0 -1.186 -1.50178 -1.68669 6.63722 -2.0751 1.77636e-015 9.964 0.21338 -3.74024 11.2703 1.05105 0 13.134 -3.25729 -3.43294 11.3915 -0.0640003 3.55271e-015 20.686 -1.69049 9.36713 -7.93174 9.46048 -8.88179e-016 7.23799 -0.12368 -10.3541 10.2182 30.5917 1.70688 20.075 5.0056 8.1754 -4.40033 -1.46192 13.6458 -0.047012 -4.84902 -36.4039 11.442 9.79115 28.3255 -0.975903 2.28883 0.938984 -5.24293 -66.6511 22.1583 -0.530035 10.8316 -23.2006 -32.1899 -19.0136 0.785995 0.111999 2.58168 3.18055e-015 1.59028e-015 -3.97569e-016 0.3601 -0.878005 4.2331 -0 -1.59028e-015 -0 0.9571 1.114 1.76948 3.18055e-015 1.59028e-015 -3.97569e-016 4.1246 0.487 4.1451 -0 -1.59028e-015 -0 3.40521 -1.45401 2.7682 3.18055e-015 -1.59028e-015 -2.38542e-015 5.6954 0.209991 2.1184 -0 -1.59028e-015 -0 3.9766 -1.53999 2.3863 3.18055e-015 -1.59028e-015 -2.38542e-015 2.09559 0.65999 -0.38939 3.18055e-015 1.59028e-015 -3.97569e-016 5.0395 -0.089997 2.49707 -0 -1.59028e-015 -0 3.7921 -1.552 1.4806 3.18055e-015 -1.59028e-015 -2.38542e-015 4.9141 -1.269 0.35915 -0 -1.59028e-015 -0 3.1477 -1.685 0.84623 3.18055e-015 -1.59028e-015 -2.38542e-015 -1.70688 20.075 5.0056 1.84168 -5.16423 0.291383 -13.6458 -0.047012 -4.84902 48.6274 3.08098 -19.6124 -28.3255 -0.975903 2.28883 -2.8463 -5.74795 74.2307 -22.1583 -0.530036 10.8316 4.43101 -32.3182 9.10767 -0.785995 0.111999 2.58168 -1.59028e-015 3.18055e-015 -7.95139e-016 -0.3601 -0.878005 4.2331 3.18055e-015 -6.36111e-015 -6.36111e-015 -0.9571 1.114 1.76948 -1.59028e-015 3.18055e-015 -7.95139e-016 -4.1246 0.487 4.1451 3.18055e-015 -6.36111e-015 -6.36111e-015 -3.40521 -1.45401 2.7682 -4.41391e-031 6.36111e-015 3.97569e-015 -5.6954 0.209991 2.1184 3.18055e-015 -6.36111e-015 -6.36111e-015 -3.9766 -1.53999 2.3863 -4.41391e-031 6.36111e-015 3.97569e-015 -2.09559 0.65999 -0.38939 -1.59028e-015 3.18055e-015 -7.95139e-016 -5.0395 -0.089997 2.49707 3.18055e-015 -6.36111e-015 -6.36111e-015 -3.7921 -1.552 1.4806 -4.41391e-031 6.36111e-015 3.97569e-015 -4.9141 -1.269 0.35915 3.18055e-015 -6.36111e-015 -6.36111e-015 -3.1477 -1.685 0.84623 -4.41391e-031 6.36111e-015 3.97569e-015 8.367 -8.2066 0.59823 31.0867 -15.0826 17.4454 2.19232 -43.463 -0.493181 -3.50351 42.2652 4.26107 0.733257 -45.8593 -2.64513 -15.6695 -5.72026 3.27301 -8.367 -8.2066 0.59823 -24.7128 -26.587 -16.1554 -2.19233 -43.463 -0.493108 -3.37507 50.1618 0.65421 -0.733256 -45.8593 -2.64514 14.0536 -9.37432 -2.40643 
0.766157 98.9911 -20.1251 -4.71137 -8.13349 -49.2041 0 -1.186 -1.50178 -2.05069 7.21157 -1.46347 0 9.964 0.21338 -4.21345 11.0362 1.22064 0 13.134 -3.25729 -3.95314 11.1396 0.213601 0 20.686 -1.69049 8.18741 -6.24578 10.5167 0 7.23799 -0.12368 -10.2449 10.0569 26.7966 1.70688 20.075 5.0056 12.0226 -3.30042 -4.10259 13.6458 -0.047012 -4.84902 -37.2855 7.10431 0.482038 28.3255 -0.975903 2.28883 0.672734 -5.6914 -71.907 22.1583 -0.530035 10.8316 -20.5225 -33.2317 -14.1614 0.785995 0.111999 2.58168 6.36111e-015 -5.33302e-015 -3.58434e-015 0.3601 -0.878005 4.2331 -7.16607e-031 -5.49764e-015 -7.4684e-015 0.9571 1.114 1.76948 6.36111e-015 -5.33302e-015 -3.58434e-015 4.1246 0.487 4.1451 -7.16607e-031 -5.49764e-015 -7.4684e-015 3.40521 -1.45401 2.7682 -4.47797e-032 -2.31708e-015 -1.10729e-015 5.6954 0.209991 2.1184 -7.16607e-031 -5.49764e-015 -7.4684e-015 3.9766 -1.53999 2.3863 -4.47797e-032 -2.31708e-015 -1.10729e-015 2.09559 0.65999 -0.38939 6.36111e-015 -5.33302e-015 -3.58434e-015 5.0395 -0.089997 2.49707 -7.16607e-031 -5.49764e-015 -7.4684e-015 3.7921 -1.552 1.4806 -4.47797e-032 -2.31708e-015 -1.10729e-015 4.9141 -1.269 0.35915 -7.16607e-031 -5.49764e-015 -7.4684e-015 3.1477 -1.685 0.84623 -4.47797e-032 -2.31708e-015 -1.10729e-015 -1.70688 20.075 5.0056 -2.63631 -2.6018 3.67624 -13.6458 -0.047012 -4.84902 52.3881 -3.0175 -15.1451 -28.3255 -0.975903 2.28883 -2.24606 -6.35167 82.1814 -22.1583 -0.530036 10.8316 -1.75101 -25.7298 7.76465 -0.785994 0.111999 2.58168 -3.18055e-015 -3.18055e-015 1.59028e-015 -0.3601 -0.878005 4.2331 6.36111e-015 -3.18055e-015 1.59028e-015 -0.957099 1.114 1.76948 -3.18055e-015 -3.18055e-015 1.59028e-015 -4.1246 0.487 4.1451 6.36111e-015 -3.18055e-015 1.59028e-015 -3.40521 -1.45401 2.7682 3.18055e-015 -9.54166e-015 3.18055e-015 -5.6954 0.209991 2.1184 6.36111e-015 -3.18055e-015 1.59028e-015 -3.9766 -1.53999 2.3863 3.18055e-015 -9.54166e-015 3.18055e-015 -2.09559 0.65999 -0.38939 -3.18055e-015 -3.18055e-015 1.59028e-015 -5.0395 -0.089997 2.49707 6.36111e-015 -3.18055e-015 1.59028e-015 -3.7921 -1.552 1.4806 3.18055e-015 -9.54166e-015 3.18055e-015 -4.9141 -1.269 0.35915 6.36111e-015 -3.18055e-015 1.59028e-015 -3.1477 -1.685 0.84623 3.18055e-015 -9.54166e-015 3.18055e-015 8.367 -8.2066 0.59823 30.8588 -19.8939 16.3843 2.19232 -43.463 -0.493181 -3.26585 40.6116 4.01028 0.733257 -45.8593 -2.64513 -9.63642 1.2731 3.04411 -8.367 -8.2066 0.59823 -20.2281 -31.132 -13.2365 -2.19233 -43.463 -0.493108 -3.96292 54.6718 1.08088 -0.733256 -45.8593 -2.64514 7.69194 -12.0222 -6.33621 
-0.987369 98.9906 -27.7481 -3.57395 -9.15775 -47.4798 0 -1.186 -1.50178 -2.42876 7.77138 -0.850746 -3.55271e-015 9.964 0.21338 -4.66568 10.7819 1.37918 3.55271e-015 13.134 -3.25729 -4.45056 10.8694 0.478764 0 20.686 -1.69049 7.04274 -4.59152 11.6595 0 7.23799 -0.12368 -9.99846 9.86938 23.0855 1.70688 20.075 5.0056 16.027 -2.53433 -6.74998 13.6458 -0.047012 -4.84902 -39.0225 2.05947 -11.5413 28.3255 -0.975903 2.28883 0.590469 -5.71844 -72.2308 22.1583 -0.530035 10.8316 -19.4378 -33.5295 -11.2464 0.785995 0.111999 2.58168 3.18055e-015 1.59028e-015 -1.59028e-015 0.3601 -0.878005 4.2331 6.36111e-015 3.18055e-015 -3.97569e-016 0.9571 1.114 1.76948 3.18055e-015 1.59028e-015 -1.59028e-015 4.1246 0.487 4.1451 6.36111e-015 3.18055e-015 -3.97569e-016 3.40521 -1.45401 2.7682 -3.18055e-015 2.38542e-015 -3.18055e-015 5.6954 0.209991 2.1184 6.36111e-015 3.18055e-015 -3.97569e-016 3.9766 -1.53999 2.3863 -3.18055e-015 2.38542e-015 -3.18055e-015 2.09559 0.65999 -0.38939 3.18055e-015 1.59028e-015 -1.59028e-015 5.0395 -0.089997 2.49707 6.36111e-015 3.18055e-015 -3.97569e-016 3.7921 -1.552 1.4806 -3.18055e-015 2.38542e-015 -3.18055e-015 4.9141 -1.269 0.35915 6.36111e-015 3.18055e-015 -3.97569e-016 3.1477 -1.685 0.84623 -3.18055e-015 2.38542e-015 -3.18055e-015 -1.70688 20.075 5.0056 -7.30057 -0.572948 7.01179 -13.6458 -0.047012 -4.84902 55.0375 -9.66663 -7.65671 -28.3255 -0.975903 2.28883 -1.9221 -6.60239 85.9439 -22.1583 -0.530036 10.8316 -2.55039 -19.9291 8.19103 -0.785995 0.111999 2.58168 -5.29669e-031 -9.54166e-015 -3.18055e-015 -0.3601 -0.878005 4.2331 6.36111e-015 0 -0 -0.9571 1.114 1.76948 -5.29669e-031 -9.54166e-015 -3.18055e-015 -4.1246 0.487 4.1451 6.36111e-015 0 -0 -3.40521 -1.45401 2.7682 3.18055e-015 -3.18055e-015 -3.18055e-015 -5.6954 0.209991 2.1184 6.36111e-015 0 -0 -3.9766 -1.53999 2.3863 3.18055e-015 -3.18055e-015 -3.18055e-015 -2.09559 0.65999 -0.38939 -5.29669e-031 -9.54166e-015 -3.18055e-015 -5.0395 -0.089997 2.49707 6.36111e-015 0 -0 -3.7921 -1.552 1.4806 3.18055e-015 -3.18055e-015 -3.18055e-015 -4.9141 -1.269 0.35915 6.36111e-015 0 -0 -3.1477 -1.685 0.84623 3.18055e-015 -3.18055e-015 -3.18055e-015 8.367 -8.2066 0.59823 30.0217 -23.4074 15.329 2.19232 -43.463 -0.493181 -2.7836 36.9365 3.45319 0.733257 -45.8593 -2.64513 -4.05309 9.24875 1.82855 -8.367 -8.2066 0.59823 -15.5402 -34.7293 -10.4844 -2.19233 -43.463 -0.493108 -4.30737 56.8872 1.3487 -0.733256 -45.8593 -2.64514 1.57132 -12.119 -10.111 
